{"materials":[{"name":"19_-_Default","pbrMetallicRoughness":{"baseColorFactor":[0.0274509825,0.0627451,0.1137255,1.0],"metallicFactor":0,"roughnessFactor":1},"alphaMode":"OPAQUE"},{"name":"(color 88 144 225)","pbrMetallicRoughness":{"baseColorFactor":[0.345098048,0.5647059,0.882352948,1.0],"metallicFactor":0.1,"roughnessFactor":0.5}}],"images":[],"textures":[],"meshes":[{"name":"Box001","primitives":[{"material":0,"mode":4,"indices":0,"attributes":{"NORMAL":2,"POSITION":1,"TEXCOORD_0":3}}]},{"name":"Box002","primitives":[{"material":1,"mode":4,"indices":4,"attributes":{"NORMAL":6,"POSITION":5,"TEXCOORD_0":7}}]},{"name":"Box003","primitives":[{"material":1,"mode":4,"indices":8,"attributes":{"NORMAL":10,"POSITION":9,"TEXCOORD_0":11}}]},{"name":"Box004","primitives":[{"material":1,"mode":4,"indices":12,"attributes":{"NORMAL":14,"POSITION":13,"TEXCOORD_0":15}}]},{"name":"Box005","primitives":[{"material":1,"mode":4,"indices":16,"attributes":{"NORMAL":18,"POSITION":17,"TEXCOORD_0":19}}]},{"name":"Box006","primitives":[{"material":1,"mode":4,"indices":20,"attributes":{"NORMAL":22,"POSITION":21,"TEXCOORD_0":23}}]},{"name":"Box007","primitives":[{"material":1,"mode":4,"indices":24,"attributes":{"NORMAL":26,"POSITION":25,"TEXCOORD_0":27}}]},{"name":"Box008","primitives":[{"material":1,"mode":4,"indices":28,"attributes":{"NORMAL":30,"POSITION":29,"TEXCOORD_0":31}}]},{"name":"Box009","primitives":[{"material":1,"mode":4,"indices":32,"attributes":{"NORMAL":34,"POSITION":33,"TEXCOORD_0":35}}]},{"name":"Box010","primitives":[{"material":1,"mode":4,"indices":36,"attributes":{"NORMAL":38,"POSITION":37,"TEXCOORD_0":39}}]},{"name":"Box011","primitives":[{"material":1,"mode":4,"indices":40,"attributes":{"NORMAL":42,"POSITION":41,"TEXCOORD_0":43}}]},{"name":"Box012","primitives":[{"material":1,"mode":4,"indices":44,"attributes":{"NORMAL":46,"POSITION":45,"TEXCOORD_0":47}}]},{"name":"Box013","primitives":[{"material":1,"mode":4,"indices":48,"attributes":{"NORMAL":50,"POSITION":49,"TEXCOORD_0":51}}]},{"name":"Box014","primitives":[{"material":1,"mode":4,"indices":52,"attributes":{"NORMAL":54,"POSITION":53,"TEXCOORD_0":55}}]},{"name":"Box015","primitives":[{"material":1,"mode":4,"indices":56,"attributes":{"NORMAL":58,"POSITION":57,"TEXCOORD_0":59}}]},{"name":"Box016","primitives":[{"material":1,"mode":4,"indices":60,"attributes":{"NORMAL":62,"POSITION":61,"TEXCOORD_0":63}}]},{"name":"Box017","primitives":[{"material":1,"mode":4,"indices":64,"attributes":{"NORMAL":66,"POSITION":65,"TEXCOORD_0":67}}]},{"name":"Box018","primitives":[{"material":1,"mode":4,"indices":68,"attributes":{"NORMAL":70,"POSITION":69,"TEXCOORD_0":71}}]}],"buffers":[{"byteLength":16119,"uri":"VPA1CY916P7H1U2A2WPWZKGQWNP32N43T.bin"}],"bufferViews":[{"buffer":0,"target":34963,"byteLength":108,"byteOffset":0},{"buffer":0,"target":34962,"byteLength":72,"byteOffset":288},{"buffer":0,"target":34962,"byteLength":504,"byteOffset":360},{"buffer":0,"target":34962,"byteLength":48,"byteOffset":792},{"buffer":0,"target":34963,"byteLength":108,"byteOffset":840},{"buffer":0,"target":34962,"byteLength":72,"byteOffset":1128},{"buffer":0,"target":34962,"byteLength":504,"byteOffset":1200},{"buffer":0,"target":34962,"byteLength":48,"byteOffset":1632},{"buffer":0,"target":34963,"byteLength":108,"byteOffset":1680},{"buffer":0,"target":34962,"byteLength":72,"byteOffset":1968},{"buffer":0,"target":34962,"byteLength":504,"byteOffset":2040},{"buffer":0,"target":34962,"byteLength":48,"byteOffset":2472},{"buffer":0,"target":34963,"byteLength":108,"byteOffset":2520},{"buffer":0,"target":34962,"byteLength":72,"byteOffset":2808},{"buffer":0,"target":34962,"byteLength":504,"byteOffset":2880},{"buffer":0,"target":34962,"byteLength":48,"byteOffset":3312},{"buffer":0,"target":34963,"byteLength":108,"byteOffset":3360},{"buffer":0,"target":34962,"byteLength":72,"byteOffset":3648},{"buffer":0,"target":34962,"byteLength":504,"byteOffset":3720},{"buffer":0,"target":34962,"byteLength":48,"byteOffset":4152},{"buffer":0,"target":34963,"byteLength":108,"byteOffset":4200},{"buffer":0,"target":34962,"byteLength":72,"byteOffset":4488},{"buffer":0,"target":34962,"byteLength":504,"byteOffset":4560},{"buffer":0,"target":34962,"byteLength":48,"byteOffset":4992},{"buffer":0,"target":34963,"byteLength":108,"byteOffset":5040},{"buffer":0,"target":34962,"byteLength":72,"byteOffset":5328},{"buffer":0,"target":34962,"byteLength":504,"byteOffset":5400},{"buffer":0,"target":34962,"byteLength":48,"byteOffset":5832},{"buffer":0,"target":34963,"byteLength":108,"byteOffset":5880},{"buffer":0,"target":34962,"byteLength":72,"byteOffset":6168},{"buffer":0,"target":34962,"byteLength":504,"byteOffset":6240},{"buffer":0,"target":34962,"byteLength":48,"byteOffset":6672},{"buffer":0,"target":34963,"byteLength":108,"byteOffset":6720},{"buffer":0,"target":34962,"byteLength":72,"byteOffset":7008},{"buffer":0,"target":34962,"byteLength":504,"byteOffset":7080},{"buffer":0,"target":34962,"byteLength":48,"byteOffset":7512},{"buffer":0,"target":34963,"byteLength":108,"byteOffset":7560},{"buffer":0,"target":34962,"byteLength":72,"byteOffset":7848},{"buffer":0,"target":34962,"byteLength":504,"byteOffset":7920},{"buffer":0,"target":34962,"byteLength":48,"byteOffset":8352},{"buffer":0,"target":34963,"byteLength":108,"byteOffset":8400},{"buffer":0,"target":34962,"byteLength":72,"byteOffset":8688},{"buffer":0,"target":34962,"byteLength":504,"byteOffset":8760},{"buffer":0,"target":34962,"byteLength":48,"byteOffset":9192},{"buffer":0,"target":34963,"byteLength":108,"byteOffset":9240},{"buffer":0,"target":34962,"byteLength":72,"byteOffset":9528},{"buffer":0,"target":34962,"byteLength":504,"byteOffset":9600},{"buffer":0,"target":34962,"byteLength":48,"byteOffset":10032},{"buffer":0,"target":34963,"byteLength":108,"byteOffset":10080},{"buffer":0,"target":34962,"byteLength":72,"byteOffset":10368},{"buffer":0,"target":34962,"byteLength":504,"byteOffset":10440},{"buffer":0,"target":34962,"byteLength":48,"byteOffset":10872},{"buffer":0,"target":34963,"byteLength":108,"byteOffset":10920},{"buffer":0,"target":34962,"byteLength":72,"byteOffset":11208},{"buffer":0,"target":34962,"byteLength":504,"byteOffset":11280},{"buffer":0,"target":34962,"byteLength":48,"byteOffset":11712},{"buffer":0,"target":34963,"byteLength":108,"byteOffset":11760},{"buffer":0,"target":34962,"byteLength":72,"byteOffset":12048},{"buffer":0,"target":34962,"byteLength":504,"byteOffset":12120},{"buffer":0,"target":34962,"byteLength":48,"byteOffset":12552},{"buffer":0,"target":34963,"byteLength":108,"byteOffset":12600},{"buffer":0,"target":34962,"byteLength":72,"byteOffset":12888},{"buffer":0,"target":34962,"byteLength":504,"byteOffset":12960},{"buffer":0,"target":34962,"byteLength":48,"byteOffset":13392},{"buffer":0,"target":34963,"byteLength":108,"byteOffset":13440},{"buffer":0,"target":34962,"byteLength":72,"byteOffset":13728},{"buffer":0,"target":34962,"byteLength":504,"byteOffset":13800},{"buffer":0,"target":34962,"byteLength":48,"byteOffset":14232},{"buffer":0,"target":34963,"byteLength":108,"byteOffset":14280},{"buffer":0,"target":34962,"byteLength":72,"byteOffset":14568},{"buffer":0,"target":34962,"byteLength":504,"byteOffset":14640},{"buffer":0,"target":34962,"byteLength":48,"byteOffset":15072}],"accessors":[{"componentType":5123,"type":"SCALAR","bufferView":0,"byteOffset":0,"byteType":496,"count":54},{"componentType":5126,"type":"VEC3","bufferView":1,"byteOffset":0,"byteType":1065,"count":6,"min":[-0.142790511250496,-0.270845085382462,0.0],"max":[0.142790511250496,0.270845085382462,0.0147003978490829]},{"componentType":5126,"type":"VEC3","bufferView":2,"byteOffset":0,"byteType":1340,"count":42},{"componentType":5126,"type":"VEC2","bufferView":3,"byteOffset":0,"byteType":923,"count":6},{"componentType":5123,"type":"SCALAR","bufferView":4,"byteOffset":0,"byteType":700,"count":54},{"componentType":5126,"type":"VEC3","bufferView":5,"byteOffset":0,"byteType":1559,"count":6,"min":[-0.142790511250496,-0.270845085382462,0.0],"max":[0.142790511250496,0.270845085382462,0.0147003978490829]},{"componentType":5126,"type":"VEC3","bufferView":6,"byteOffset":0,"byteType":231,"count":42},{"componentType":5126,"type":"VEC2","bufferView":7,"byteOffset":0,"byteType":755,"count":6},{"componentType":5123,"type":"SCALAR","bufferView":8,"byteOffset":0,"byteType":849,"count":54},{"componentType":5126,"type":"VEC3","bufferView":9,"byteOffset":0,"byteType":1119,"count":6,"min":[-0.142790511250496,-0.270845085382462,0.0],"max":[0.142790511250496,0.270845085382462,0.0147003978490829]},{"componentType":5126,"type":"VEC3","bufferView":10,"byteOffset":0,"byteType":1112,"count":42},{"componentType":5126,"type":"VEC2","bufferView":11,"byteOffset":0,"byteType":1301,"count":6},{"componentType":5123,"type":"SCALAR","bufferView":12,"byteOffset":0,"byteType":1627,"count":54},{"componentType":5126,"type":"VEC3","bufferView":13,"byteOffset":0,"byteType":1795,"count":6,"min":[-0.142790511250496,-0.270845085382462,0.0],"max":[0.142790511250496,0.270845085382462,0.0147003978490829]},{"componentType":5126,"type":"VEC3","bufferView":14,"byteOffset":0,"byteType":1167,"count":42},{"componentType":5126,"type":"VEC2","bufferView":15,"byteOffset":0,"byteType":1927,"count":6},{"componentType":5123,"type":"SCALAR","bufferView":16,"byteOffset":0,"byteType":1745,"count":54},{"componentType":5126,"type":"VEC3","bufferView":17,"byteOffset":0,"byteType":1789,"count":6,"min":[-0.142790511250496,-0.270845085382462,0.0],"max":[0.142790511250496,0.270845085382462,0.0147003978490829]},{"componentType":5126,"type":"VEC3","bufferView":18,"byteOffset":0,"byteType":1135,"count":42},{"componentType":5126,"type":"VEC2","bufferView":19,"byteOffset":0,"byteType":365,"count":6},{"componentType":5123,"type":"SCALAR","bufferView":20,"byteOffset":0,"byteType":1469,"count":54},{"componentType":5126,"type":"VEC3","bufferView":21,"byteOffset":0,"byteType":1931,"count":6,"min":[-0.142790511250496,-0.270845085382462,0.0],"max":[0.142790511250496,0.270845085382462,0.0147003978490829]},{"componentType":5126,"type":"VEC3","bufferView":22,"byteOffset":0,"byteType":1217,"count":42},{"componentType":5126,"type":"VEC2","bufferView":23,"byteOffset":0,"byteType":1277,"count":6},{"componentType":5123,"type":"SCALAR","bufferView":24,"byteOffset":0,"byteType":1747,"count":54},{"componentType":5126,"type":"VEC3","bufferView":25,"byteOffset":0,"byteType":1827,"count":6,"min":[-0.142790511250496,-0.270845085382462,0.0],"max":[0.142790511250496,0.270845085382462,0.0147003978490829]},{"componentType":5126,"type":"VEC3","bufferView":26,"byteOffset":0,"byteType":1722,"count":42},{"componentType":5126,"type":"VEC2","bufferView":27,"byteOffset":0,"byteType":1071,"count":6},{"componentType":5123,"type":"SCALAR","bufferView":28,"byteOffset":0,"byteType":880,"count":54},{"componentType":5126,"type":"VEC3","bufferView":29,"byteOffset":0,"byteType":1435,"count":6,"min":[-0.142790511250496,-0.270845085382462,0.0],"max":[0.142790511250496,0.270845085382462,0.0147003978490829]},{"componentType":5126,"type":"VEC3","bufferView":30,"byteOffset":0,"byteType":1011,"count":42},{"componentType":5126,"type":"VEC2","bufferView":31,"byteOffset":0,"byteType":1735,"count":6},{"componentType":5123,"type":"SCALAR","bufferView":32,"byteOffset":0,"byteType":1861,"count":54},{"componentType":5126,"type":"VEC3","bufferView":33,"byteOffset":0,"byteType":1641,"count":6,"min":[-0.142790511250496,-0.270845085382462,0.0],"max":[0.142790511250496,0.270845085382462,0.0147003978490829]},{"componentType":5126,"type":"VEC3","bufferView":34,"byteOffset":0,"byteType":632,"count":42},{"componentType":5126,"type":"VEC2","bufferView":35,"byteOffset":0,"byteType":523,"count":6},{"componentType":5123,"type":"SCALAR","bufferView":36,"byteOffset":0,"byteType":1140,"count":54},{"componentType":5126,"type":"VEC3","bufferView":37,"byteOffset":0,"byteType":495,"count":6,"min":[-0.142790511250496,-0.270845085382462,0.0],"max":[0.142790511250496,0.270845085382462,0.0147003978490829]},{"componentType":5126,"type":"VEC3","bufferView":38,"byteOffset":0,"byteType":844,"count":42},{"componentType":5126,"type":"VEC2","bufferView":39,"byteOffset":0,"byteType":799,"count":6},{"componentType":5123,"type":"SCALAR","bufferView":40,"byteOffset":0,"byteType":849,"count":54},{"componentType":5126,"type":"VEC3","bufferView":41,"byteOffset":0,"byteType":379,"count":6,"min":[-0.142790511250496,-0.270845085382462,0.0],"max":[0.142790511250496,0.270845085382462,0.0147003978490829]},{"componentType":5126,"type":"VEC3","bufferView":42,"byteOffset":0,"byteType":558,"count":42},{"componentType":5126,"type":"VEC2","bufferView":43,"byteOffset":0,"byteType":1065,"count":6},{"componentType":5123,"type":"SCALAR","bufferView":44,"byteOffset":0,"byteType":1291,"count":54},{"componentType":5126,"type":"VEC3","bufferView":45,"byteOffset":0,"byteType":1941,"count":6,"min":[-0.142790511250496,-0.270845085382462,0.0],"max":[0.142790511250496,0.270845085382462,0.0147003978490829]},{"componentType":5126,"type":"VEC3","bufferView":46,"byteOffset":0,"byteType":353,"count":42},{"componentType":5126,"type":"VEC2","bufferView":47,"byteOffset":0,"byteType":619,"count":6},{"componentType":5123,"type":"SCALAR","bufferView":48,"byteOffset":0,"byteType":1558,"count":54},{"componentType":5126,"type":"VEC3","bufferView":49,"byteOffset":0,"byteType":1191,"count":6,"min":[-0.142790511250496,-0.270845085382462,0.0],"max":[0.142790511250496,0.270845085382462,0.0147003978490829]},{"componentType":5126,"type":"VEC3","bufferView":50,"byteOffset":0,"byteType":339,"count":42},{"componentType":5126,"type":"VEC2","bufferView":51,"byteOffset":0,"byteType":1261,"count":6},{"componentType":5123,"type":"SCALAR","bufferView":52,"byteOffset":0,"byteType":691,"count":54},{"componentType":5126,"type":"VEC3","bufferView":53,"byteOffset":0,"byteType":683,"count":6,"min":[-0.142790511250496,-0.270845085382462,0.0],"max":[0.142790511250496,0.270845085382462,0.0147003978490829]},{"componentType":5126,"type":"VEC3","bufferView":54,"byteOffset":0,"byteType":1201,"count":42},{"componentType":5126,"type":"VEC2","bufferView":55,"byteOffset":0,"byteType":1249,"count":6},{"componentType":5123,"type":"SCALAR","bufferView":56,"byteOffset":0,"byteType":654,"count":54},{"componentType":5126,"type":"VEC3","bufferView":57,"byteOffset":0,"byteType":1105,"count":6,"min":[-0.142790511250496,-0.270845085382462,0.0],"max":[0.142790511250496,0.270845085382462,0.0147003978490829]},{"componentType":5126,"type":"VEC3","bufferView":58,"byteOffset":0,"byteType":1917,"count":42},{"componentType":5126,"type":"VEC2","bufferView":59,"byteOffset":0,"byteType":981,"count":6},{"componentType":5123,"type":"SCALAR","bufferView":60,"byteOffset":0,"byteType":518,"count":54},{"componentType":5126,"type":"VEC3","bufferView":61,"byteOffset":0,"byteType":1433,"count":6,"min":[-0.142790511250496,-0.270845085382462,0.0],"max":[0.142790511250496,0.270845085382462,0.0147003978490829]},{"componentType":5126,"type":"VEC3","bufferView":62,"byteOffset":0,"byteType":1083,"count":42},{"componentType":5126,"type":"VEC2","bufferView":63,"byteOffset":0,"byteType":1861,"count":6},{"componentType":5123,"type":"SCALAR","bufferView":64,"byteOffset":0,"byteType":1638,"count":54},{"componentType":5126,"type":"VEC3","bufferView":65,"byteOffset":0,"byteType":453,"count":6,"min":[-0.142790511250496,-0.270845085382462,0.0],"max":[0.142790511250496,0.270845085382462,0.0147003978490829]},{"componentType":5126,"type":"VEC3","bufferView":66,"byteOffset":0,"byteType":1113,"count":42},{"componentType":5126,"type":"VEC2","bufferView":67,"byteOffset":0,"byteType":1801,"count":6},{"componentType":5123,"type":"SCALAR","bufferView":68,"byteOffset":0,"byteType":465,"count":54},{"componentType":5126,"type":"VEC3","bufferView":69,"byteOffset":0,"byteType":207,"count":6,"min":[-0.142790511250496,-0.270845085382462,0.0],"max":[0.142790511250496,0.270845085382462,0.0147003978490829]},{"componentType":5126,"type":"VEC3","bufferView":70,"byteOffset":0,"byteType":767,"count":42},{"componentType":5126,"type":"VEC2","bufferView":71,"byteOffset":0,"byteType":1437,"count":6}],"nodes":[{"name":"RootNode","translation":[0.0,0.0,0.0],"rotation":[0.0,0.0,0.0,1.0],"scale":[1.0,1.0,1.0],"children":[1,2,3,4,5,6,7,8,9,10,11,12,13,14,15,16,17,18]},{"name":"Box001","translation":[0.0,0.0,0.0],"rotation":[-0.70710676908493,0.0,0.0,0.70710676908493],"scale":[1.0,1.0,1.0],"mesh":0},{"name":"Box002","translation":[-0.137123972177505,0.00338661670684814,0.0],"rotation":[-0.70710676908493,0.0,0.0,0.70710676908493],"scale":[0.0350800007581711,1.0,1.0],"mesh":1},{"name":"Box003","translation":[0.137621432542801,0.00338661670684814,0.0],"rotation":[-0.70710676908493,0.0,0.0,0.70710676908493],"scale":[0.0350800007581711,1.0,1.0],"mesh":2},{"name":"Box004","translation":[0.00310344994068146,0.00137054920196533,-0.24150162935257],"rotation":[-0.70710676908493,0.0,0.0,0.70710676908493],"scale":[0.0350800007581711,0.0735820010304451,1.0],"mesh":3},{"name":"Box005","translation":[0.00310344994068146,0.00137054920196533,-0.18075305223465],"rotation":[-0.70710676908493,0.0,0.0,0.70710676908493],"scale":[0.0350800007581711,0.0735820010304451,1.0],"mesh":4},{"name":"Box006","translation":[0.00310344994068146,0.00137054920196533,-0.12000447511673],"rotation":[-0.70710676908493,0.0,0.0,0.70710676908493],"scale":[0.0350800007581711,0.0735820010304451,1.0],"mesh":5},{"name":"Box007","translation":[0.00310344994068146,0.00137054920196533,-0.0592558979988098],"rotation":[-0.70710676908493,0.0,0.0,0.70710676908493],"scale":[0.0350800007581711,0.0735820010304451,1.0],"mesh":6},{"name":"Box008","translation":[0.00310344994068146,0.00137054920196533,0.00149267911911011],"rotation":[-0.70710676908493,0.0,0.0,0.70710676908493],"scale":[0.0350800007581711,0.0735820010304451,1.0],"mesh":7},{"name":"Box009","translation":[0.00310344994068146,0.00137054920196533,0.06224125623703],"rotation":[-0.70710676908493,0.0,0.0,0.70710676908493],"scale":[0.0350800007581711,0.0735820010304451,1.0],"mesh":8},{"name":"Box010","translation":[0.00310344994068146,0.00137054920196533,0.12298983335495],"rotation":[-0.70710676908493,0.0,0.0,0.70710676908493],"scale":[0.0350800007581711,0.0735820010304451,1.0],"mesh":9},{"name":"Box011","translation":[0.00310344994068146,0.00137054920196533,0.18373841047287],"rotation":[-0.70710676908493,0.0,0.0,0.70710676908493],"scale":[0.0350800007581711,0.0735820010304451,1.0],"mesh":10},{"name":"Box012","translation":[0.00310344994068146,0.00137054920196533,0.24448698759079],"rotation":[-0.70710676908493,0.0,0.0,0.70710676908493],"scale":[0.0350800007581711,0.0735820010304451,1.0],"mesh":11},{"name":"Box013","translation":[-0.0668842494487762,0.00137054920196533,-0.12000447511673],"rotation":[-0.70710676908493,0.0,0.0,0.70710676908493],"scale":[0.0350800007581711,0.0735820010304451,1.0],"mesh":12},{"name":"Box014","translation":[0.075692892074585,0.00137054920196533,-0.187605679035187],"rotation":[-0.70710676908493,0.0,0.0,0.70710676908493],"scale":[0.0350800007581711,0.0735820010304451,1.0],"mesh":13},{"name":"Box015","translation":[0.075692892074585,0.00137054920196533,-0.0265793204307556],"rotation":[-0.70710676908493,0.0,0.0,0.70710676908493],"scale":[0.0350800007581711,0.0735820010304451,1.0],"mesh":14},{"name":"Box016","translation":[0.075692892074585,0.00137054920196533,0.114364206790924],"rotation":[-0.70710676908493,0.0,0.0,0.70710676908493],"scale":[0.0350800007581711,0.0735820010304451,1.0],"mesh":15},{"name":"Box017","translation":[-0.0691920220851898,0.00137054920196533,0.189486801624298],"rotation":[-0.70710676908493,0.0,0.0,0.70710676908493],"scale":[0.0350800007581711,0.0735820010304451,1.0],"mesh":16},{"name":"Box018","translation":[-0.0691920220851898,0.00137054920196533,0.0663270354270935],"rotation":[-0.70710676908493,0.0,0.0,0.70710676908493],"scale":[0.0350800007581711,0.0735820010304451,1.0],"mesh":17}],"asset":{"generator":"FBX2glTF","version":"2.0"},"scene":0,"scenes":[{"name":"Root Scene","nodes":[0]}],"samplers":[{}]}
