{"materials":[{"name":"21_-_Default_alpha","pbrMetallicRoughness":{"baseColorTexture":{"index":0,"texCoord":0,"extensions":{"textureExtensions":[{"index":1,"texCoord":0,"extensions":{"scrollAnim":{"speed":[0.0,-0.5]}}}]}},"baseColorFactor":[1.0,1.0,1.0,1.0],"metallicFactor":0,"roughnessFactor":1},"alphaMode":"BLEND"}],"images":[{"uri":"OZID8ZOOE4UMJD6ITUY7PFJ6EFZKO1P24.jpg"},{"uri":"E47TQZVRE185886XDEWC2A86M3JK4HUVO.png"}],"textures":[{"name":"粗细白条_f_png.jpg","sampler":0,"source":0},{"name":"粗细白条.png","sampler":0,"source":1}],"meshes":[{"name":"Cylinder001","primitives":[{"material":0,"mode":4,"indices":0,"attributes":{"COLOR_0":3,"NORMAL":2,"POSITION":1,"TEXCOORD_0":4}}]}],"buffers":[{"byteLength":2991,"uri":"Q00DG9JQIF6VC78VI8715Q125OP7IQTW2.bin"}],"bufferViews":[{"buffer":0,"target":34963,"byteLength":248,"byteOffset":0},{"buffer":0,"target":34962,"byteLength":252,"byteOffset":408},{"buffer":0,"target":34962,"byteLength":636,"byteOffset":660},{"buffer":0,"target":34962,"byteLength":336,"byteOffset":1360},{"buffer":0,"target":34962,"byteLength":424,"byteOffset":1696}],"accessors":[{"componentType":5123,"type":"SCALAR","bufferView":0,"byteOffset":0,"byteType":561,"count":124},{"componentType":5126,"type":"VEC3","bufferView":1,"byteOffset":0,"byteType":1255,"count":21,"min":[-0.492658346891403,-0.492658346891403,-4.99486923217773E-05],"max":[0.492658346891403,0.492658346891403,-4.99486923217773E-05]},{"componentType":5126,"type":"VEC3","bufferView":2,"byteOffset":0,"byteType":1315,"count":53},{"componentType":5126,"type":"VEC4","bufferView":3,"byteOffset":0,"byteType":877,"count":21},{"componentType":5126,"type":"VEC2","bufferView":4,"byteOffset":0,"byteType":216,"count":53}],"nodes":[{"name":"RootNode","translation":[0.0,0.0,0.0],"rotation":[0.0,0.0,0.0,1.0],"scale":[1.0,1.0,1.0],"children":[1]},{"name":"Cylinder001","translation":[0.0,0.0,0.0],"rotation":[-0.70710676908493,0.0,0.0,0.70710676908493],"scale":[1.0,1.0,1.0],"mesh":0}],"asset":{"generator":"FBX2glTF","version":"2.0"},"scene":0,"scenes":[{"name":"Root Scene","nodes":[0]}],"samplers":[{}]}
